<?xml version="1.0" encoding="UTF-8"?>
<svg width="40px" height="32px" viewBox="0 0 40 32" version="1.1" xmlns="http://www.w3.org/2000/svg" xmlns:xlink="http://www.w3.org/1999/xlink">
    <title>logot</title>
    <g id="页面-1" stroke="none" stroke-width="1" fill="none" fill-rule="evenodd">
        <g id="logot" transform="translate(0, -0.0001)" fill="#FFFFFF" fill-rule="nonzero">
            <path d="M24,0.0157953158 C23.8454746,0.732482386 23.45585,1.27752124 23.1589406,1.86157104 C22.4812365,3.19128749 21.7306848,4.47753458 20.8664466,5.69913493 C20.3697579,6.40021762 19.8046366,6.77137904 18.8984558,6.7134199 C17.6567342,6.63316878 16.4061826,6.70561771 15.1589423,6.68332573 C14.7671101,6.67663813 14.5121433,6.78698342 14.3145716,7.14365506 C12.5110399,10.4038567 10.8929387,13.7465387 9.85430761,17.3478077 C9.84437384,17.3834748 9.83112881,17.4180274 9.82229879,17.4536946 C9.62362333,18.2372576 9.61920832,18.247289 8.8664491,17.9630662 C8.18322629,17.7044793 7.51987102,17.3990792 6.86976078,17.0613558 C6.59823766,16.9209163 6.52649374,16.7559557 6.53642752,16.4561286 C6.58830388,14.8410748 6.95364597,13.276178 7.27594171,11.7068228 C7.58388866,10.2088019 7.91942943,8.71635406 8.26711148,7.22724997 C8.38079799,6.73905567 8.02870093,6.9062455 7.85099678,6.9051309 C5.92605237,6.89509951 4.00000421,6.90067251 2.0750598,6.9029017 C1.03642867,6.9040163 1.0033161,6.9029017 1.10486133,5.84737658 C1.25497167,4.28247977 1.51214601,2.74210414 2.26600899,1.32544899 C2.7284813,0.457176467 3.31126263,-0.00761126031 4.38190258,-1.77635684e-15 C10.5430492,0.0447748863 16.7041958,0.0191391124 22.8653424,0.0169099147 C23.2295807,0.0169099147 23.5938191,0.0169099147 23.9988962,0.0169099147 L24,0.0157953158 Z" id="路径"></path>
            <path d="M36.2591329,12.6121511 C36.2108895,15.4891137 36.4723014,15.0825742 34.2890066,16.2810302 C32.8394604,17.0762881 31.3629877,17.8203109 29.7608577,18.2725164 C28.9811095,18.4919363 28.9149151,18.4128561 29.0663769,17.62985 C29.4770069,15.5125036 30.0132941,13.4152057 30.2500234,11.2689003 C30.3723148,10.1539799 30.4564603,9.02569373 30.2186091,7.90520425 C29.7743209,5.815703 28.5020412,5.70320853 26.8965454,6.47953175 C26.0001155,6.91280253 25.3695853,7.65793918 24.8523711,8.48104228 C23.5699939,10.5237637 22.8676596,12.7781083 22.3324944,15.112647 C21.9633762,16.7187562 21.7187933,18.332662 21.5650875,19.9666163 C21.5426487,20.2083124 21.4147476,20.2595475 21.1937255,20.2628889 C19.2146237,20.2929617 17.2545949,20.1515082 15.3192488,19.7104408 C14.9714474,19.6313605 14.8637412,19.5344594 14.9759352,19.1613341 C16.0743142,15.5303245 17.5777136,12.083093 19.9180799,9.06913218 C21.5336732,6.98854139 23.4667755,5.21647503 26.0573344,4.3555025 C28.3696523,3.58808972 30.6842141,3.34750749 32.8787283,4.70969301 C34.635686,5.8001097 35.436751,7.5276238 35.8989902,9.44337121 C36.1772313,10.5983887 36.2995227,11.7723409 36.2591329,12.6143787 L36.2591329,12.6121511 Z" id="路径"></path>
            <path d="M0.00196668632,11.2871613 C0.944816508,13.2569114 2.5526823,14.5470865 4.28328593,15.6891345 C7.83710449,18.0331597 11.8227371,19.174077 15.9556551,19.8819206 C17.8781761,20.2109661 19.8241289,20.3489165 21.7622711,20.2957717 C25.3372898,20.1973972 28.8241605,19.5777514 32.101261,18.0342905 C35.0469693,16.6468717 37.5173474,14.6725987 39.3863101,11.9588212 C39.5425219,11.7315424 39.713239,11.5155709 39.9486725,11.2000943 C40.0535576,11.9588212 39.9899571,12.58299 39.8281663,13.2162048 C39.0158649,16.4082855 36.9494059,18.5657385 34.2168151,20.1442524 C31.4875717,21.7205048 28.5474424,22.691811 25.4321327,23.1248846 C22.4484872,23.5398664 19.4681892,23.5647427 16.4689225,23.2662272 C13.6448362,22.9858035 10.931214,22.3118821 8.33698227,21.1777493 C5.26072551,19.8332987 2.62297761,17.9246086 1.02180661,14.8342946 C0.450517726,13.7306918 -0.0437810565,12.5795978 0.00308248493,11.2882921 L0.00196668632,11.2871613 Z" id="路径"></path>
            <path d="M34.6545151,21.3334276 C34.7308142,22.1250594 34.4322523,22.8121779 34.1934028,23.4959609 C33.2700725,26.1299154 31.7662052,28.3591592 29.5115099,30.0347056 C27.3043635,31.6757849 24.7875972,32.1583245 22.1093864,31.957081 C18.8307345,31.710252 16.6656078,29.9179622 15.385109,26.9526787 C15.004719,26.0720996 14.7669753,25.1425994 14.5049043,24.2208821 C14.3047573,23.5148623 14.336825,23.4715004 15.0865471,23.5648952 C16.5981549,23.7527965 18.1097628,23.9295794 19.6368516,23.8839939 C20.0957523,23.8706518 20.5568646,23.8962242 21.0146595,23.8717636 C21.3110098,23.8561979 21.4072131,23.9451452 21.4525503,24.2553492 C21.6416395,25.5373034 21.9534708,26.7903497 22.6810772,27.8844026 C23.8941231,29.7089358 25.225488,30.1292122 27.2734015,29.3353568 C29.3754984,28.5203764 30.7168154,27.028284 31.1889855,24.785698 C31.3139392,24.1919742 31.4444218,23.5993623 31.4775953,22.9922964 C31.4886532,22.7877174 31.5505771,22.6298358 31.7418779,22.5486713 C32.7028049,22.1450725 33.6648377,21.7459211 34.6545151,21.3334276 Z" id="路径"></path>
            <path d="M5.45671314,20.266761 C6.49253902,20.7802665 7.47431222,21.3502134 8.52668484,21.7762902 C8.75833919,21.8703591 8.79143267,22.0430032 8.79915448,22.2577016 C8.83886666,23.2470851 8.86203209,24.238682 8.93594086,25.2258521 C9.07934594,27.1448577 9.24040087,29.0627566 9.57574812,30.9596283 C9.65296623,31.3945587 9.55589203,31.4720272 9.13781108,31.4664937 C7.39709411,31.4432531 5.65637713,31.4598535 3.91566015,31.4565335 C3.12141667,31.4554268 3.12031355,31.4498933 3.29019341,30.6342606 C3.60458145,29.1291582 3.93551624,27.6262691 4.2300482,26.1167399 C4.59076712,24.267456 5.07062256,22.4425193 5.34640155,20.576635 C5.36184517,20.4737125 5.41479474,20.3763236 5.45450691,20.266761 L5.45671314,20.266761 Z" id="路径"></path>
        </g>
    </g>
</svg>