<?xml version="1.0" encoding="UTF-8"?><!DOCTYPE svg PUBLIC "-//W3C//DTD SVG 1.1//EN" "http://www.w3.org/Graphics/SVG/1.1/DTD/svg11.dtd"><svg xmlns="http://www.w3.org/2000/svg" xmlns:xlink="http://www.w3.org/1999/xlink" height="130px" viewBox="0 0 64 64"><path fill-rule="evenodd" clip-rule="evenodd" fill="#F7981D" d="M25.9 35.5c-2.4 1.8-5.8 2.7-8.8 2.7-4.2 0-7.9-1.5-10.7-4.1-.2-.2 0-.5.2-.3 3.1 1.8 6.8 2.8 10.7 2.8 2.6 0 5.5-.5 8.2-1.7.4-.2.7.3.4.6z"/><path fill-rule="evenodd" clip-rule="evenodd" fill="#F7981D" d="M25.9 35.5c-2.4 1.8-5.8 2.7-8.8 2.7-4.2 0-7.9-1.5-10.7-4.1-.2-.2 0-.5.2-.3 3.1 1.8 6.8 2.8 10.7 2.8 2.6 0 5.5-.5 8.2-1.7.4-.2.7.3.4.6z"/><path fill-rule="evenodd" clip-rule="evenodd" fill="#E86E00" d="M25.9 34.9c-2.4 1.7-5.8 2.6-8.7 2.6-3.9 0-7.4-1.4-10.1-3.6-.1-.1-.3-.1-.4-.2-.3-.2-.5.1-.2.3 2.8 2.6 6.6 4.1 10.7 4.1 3 0 6.4-.9 8.8-2.7.1-.1.1-.4-.1-.5z"/><path fill-rule="evenodd" clip-rule="evenodd" fill="#F7981D" d="M26.8 34.3c-.3-.4-2-.2-2.8-.1-.2 0-.3-.2-.1-.3 1.4-1 3.6-.7 3.8-.4.3.3-.1 2.6-1.3 3.6-.2.2-.4.1-.3-.1.4-.7 1-2.3.7-2.7z"/><path fill-rule="evenodd" clip-rule="evenodd" fill="#E86E00" d="M27.9 33.6c.3.3-.1 2.6-1.3 3.6-.2.2-.4.1-.3-.1.3-.7.9-2.3.6-2.7"/><path fill-rule="evenodd" clip-rule="evenodd" d="M24.1 27.2v-.9c0-.1.1-.2.2-.2h4.2c.1 0 .2.1.2.2v.8c0 .1-.1.3-.3.6l-2.2 3.1c.8 0 1.6.1 2.4.5.2.1.2.2.2.4v1c0 .1-.1.3-.3.2-1.3-.7-3-.7-4.4 0-.1.1-.3-.1-.3-.2v-.9c0-.1 0-.4.2-.6l2.5-3.6h-2.2c-.1-.2-.2-.3-.2-.4z"/><path fill-rule="evenodd" clip-rule="evenodd" d="M9 33H7.7c-.1 0-.2-.1-.2-.2v-6.5c0-.1.1-.2.2-.2h1.2c.1 0 .2.1.2.2v.8c.3-.8.9-1.2 1.7-1.2.8 0 1.3.4 1.6 1.2.3-.8 1-1.2 1.7-1.2.5 0 1.1.2 1.5.7.4.5.3 1.3.3 2v4.1c0 .1-.1.2-.2.2h-1.3c-.1 0-.2-.1-.2-.2v-3.4-1.2c-.1-.4-.4-.6-.7-.6-.3 0-.6.2-.8.5-.1.3-.1.9-.1 1.2v3.4c0 .1-.1.2-.2.2h-1.3c-.1 0-.2-.1-.2-.2v-3.4c0-.7.1-1.8-.8-1.8s-.9 1-.9 1.8v3.4c0 .3-.1.4-.2.4z"/><path fill-rule="evenodd" clip-rule="evenodd" d="M32.3 25.9c1.9 0 2.9 1.6 2.9 3.7 0 2-1.1 3.6-2.9 3.6-1.8 0-2.8-1.6-2.8-3.6 0-2.1 1-3.7 2.8-3.7zm0 1.3c-.9 0-1 1.3-1 2.1s0 2.5 1 2.5 1-1.4 1-2.2c0-.5 0-1.2-.2-1.7-.1-.5-.4-.7-.8-.7z"/><path fill-rule="evenodd" clip-rule="evenodd" d="M37.7 33h-1.3c-.1 0-.2-.1-.2-.2v-6.5c0-.1.1-.2.2-.2h1.2c.1 0 .2.1.2.2v1c.4-.9.8-1.3 1.7-1.3.6 0 1.1.2 1.5.8.3.5.3 1.4.3 2v4.1c0 .1-.1.2-.2.2h-1.3c-.1 0-.2-.1-.2-.2v-3.5c0-.7.1-1.7-.8-1.7-.3 0-.6.2-.7.5-.2.4-.2.8-.2 1.2v3.5s-.1.1-.2.1z"/><ellipse fill-rule="evenodd" clip-rule="evenodd" fill="#E86E00" cx="42.8" cy="32.5" rx="0.6" ry="0.6"/><path fill="#F7981D" d="M55.6 33c-.1 0-.2-.1-.2-.2v-6.5c0-.1.1-.2.2-.2h.4c.1 0 .2.1.2.2v.9c.3-.7.9-1.3 1.7-1.3.8 0 1.4.6 1.7 1.5.3-.9 1-1.5 1.9-1.5.6 0 1.2.4 1.5 1 .3.6.3 1.3.3 2v3.9c0 .1-.1.2-.2.2h-.6c-.1 0-.2-.1-.2-.2v-3.9c0-.5 0-1-.2-1.4-.2-.4-.6-.7-1-.7s-.8.3-1.1.8c-.3.6-.3 1.1-.3 1.7v3.5c0 .1-.1.2-.2.2h-.6c-.1 0-.2-.1-.2-.2v-4.2c0-.4 0-.8-.2-1.2-.2-.4-.6-.6-1-.7-.4 0-.8.3-1 .7-.3.5-.4 1-.4 1.6v3.7c0 .1-.1.2-.2.2h-.3z"/><path fill="#F7981D" d="M51.8 33.1c-1.8 0-2.6-1.8-2.6-3.7 0-1.9.9-3.6 2.8-3.6 1.8 0 2.6 1.8 2.6 3.6 0 2-.9 3.7-2.8 3.7zm.1-.9c.6 0 1.1-.4 1.3-1 .2-.5.3-1.2.3-1.8 0-.7-.1-1.3-.4-1.9-.3-.5-.7-.8-1.3-.8-.6 0-1.1.4-1.3 1-.2.5-.3 1.2-.3 1.7 0 .6.1 1.4.3 1.9.4.6.9.9 1.4.9z"/><path fill="#F7981D" d="M46.1 32.2c.8 0 1.2-.7 1.4-1.5 0-.1.1-.2.2-.2h.5c.1 0 .2.1.2.2-.2 1.4-1.1 2.4-2.3 2.4-1.8 0-2.6-1.8-2.6-3.6s.8-3.6 2.6-3.6c1.2 0 2.1 1 2.3 2.4 0 .1-.1.2-.2.2h-.6c-.1 0-.2-.1-.2-.2-.1-.8-.6-1.4-1.4-1.5-1.2 0-1.6 1.5-1.6 2.7.2 1.1.5 2.7 1.7 2.7z"/><path fill-rule="evenodd" clip-rule="evenodd" d="M20.8 29.9c0 .5 0 .9-.2 1.3s-.5.6-.9.6c-.5 0-.8-.4-.8-.9 0-1.1 1-1.3 1.9-1.3v.3zm1.3 3.1h-.3c-.4-.3-.5-.5-.7-.8-.7.7-1.2.9-2.1.9-1.1 0-1.9-.7-1.9-2 0-1 .6-1.7 1.3-2.1.7-.3 1.6-.4 2.4-.4v-.2c0-.3 0-.7-.2-.9-.2-.2-.4-.3-.7-.3-.5 0-.9.2-1 .8 0 .1-.1.2-.2.2l-1.2-.2c-.1 0-.2-.1-.2-.3.3-1.5 1.6-1.9 2.8-1.9.6 0 1.4.2 1.9.6.6.6.6 1.3.6 2.2v2c0 .6.2.9.5 1.2.1.1.1.3 0 .3-.3.2-.8.6-1 .9z"/><path fill-rule="evenodd" clip-rule="evenodd" d="M4.2 29.9c0 .5 0 .9-.2 1.3s-.5.6-.9.6c-.5 0-.8-.4-.8-.9 0-1.1 1-1.3 1.9-1.3v.3zM5.5 33h-.3c-.4-.3-.5-.5-.7-.8-.7.7-1.2.9-2.1.9-1.1 0-1.9-.7-1.9-2 0-1 .6-1.7 1.3-2.1.7-.3 1.6-.4 2.4-.4v-.2c0-.3 0-.7-.2-.9-.2-.2-.5-.3-.7-.3-.5 0-.9.2-1 .8 0 .1-.1.2-.2.2L.9 28c-.1 0-.2-.1-.2-.3.3-1.5 1.6-1.9 2.8-1.9.6 0 1.4.2 1.9.6.7.6.6 1.4.6 2.2v2c0 .6.2.9.5 1.2.1.1.1.3 0 .3-.3.2-.7.6-1 .9z"/><g><path fill-rule="evenodd" clip-rule="evenodd" fill="#545E60" d="M39.6 25.9c-.9 0-1.4.4-1.7 1.3v-1c0-.1-.1-.2-.2-.2h-1.2c-.1 0-.2.1-.2.2v2c1.7-.6 3.2-1.2 4.5-1.9-.4-.3-.8-.4-1.2-.4z"/></g><g><path fill-rule="evenodd" clip-rule="evenodd" fill="#545E60" d="M32.3 25.9c-1.8 0-2.8 1.6-2.8 3.6v.5c.6-.1 1.2-.3 1.8-.4v-.3c0-.8.1-2.1 1-2.1.4 0 .7.2.8.6.1.4.2.8.2 1.2.6-.2 1.2-.3 1.8-.5-.3-1.5-1.2-2.6-2.8-2.6z"/></g><g><path fill-rule="evenodd" clip-rule="evenodd" fill="#545E60" d="M28.5 26h-4.2c-.1 0-.2.1-.2.2v.9c0 .1.1.2.2.2h2.2l-2.3 3.4c.8-.1 1.5-.2 2.2-.3l2-2.9c.2-.3.3-.5.3-.6v-.8c.1 0-.1-.1-.2-.1z"/></g><g><path fill-rule="evenodd" clip-rule="evenodd" fill="#545E60" d="M22 26.5c-.5-.5-1.3-.6-1.9-.6-1.2 0-2.5.4-2.8 1.9 0 .2.1.2.2.3l1.2.1c.1 0 .2-.1.2-.2.1-.5.5-.8 1-.8.3 0 .6.1.7.3.2.3.2.6.2.9v.2c-.7.1-1.7.1-2.4.4-.8.3-1.3 1-1.3 2.1h1.8v-.2c0-1.1 1-1.3 1.9-1.3v.3c0 .4 0 .8-.2 1.2.7 0 1.3-.1 2-.1v-2.3c0-.9 0-1.7-.6-2.2z"/></g><g><path fill-rule="evenodd" clip-rule="evenodd" fill="#545E60" d="M14.2 25.9c-.7 0-1.4.4-1.7 1.2-.4-.8-.9-1.2-1.6-1.2-.8 0-1.4.4-1.7 1.2v-.8c-.1-.2-.2-.3-.3-.3H7.7c-.1 0-.2.1-.2.2v3.9c.6.1 1.1.2 1.7.3v-1.2c0-.8 0-1.8.9-1.8s.8 1.1.8 1.8v1.4c.6.1 1.2.1 1.7.2v-1.6c0-.4 0-.9.1-1.2.1-.3.4-.5.8-.5s.7.1.7.6c.1.3 0 .9 0 1.2V31c.6 0 1.2.1 1.7.1v-2.4c0-.7.1-1.5-.3-2-.3-.6-.9-.8-1.4-.8z"/></g><g><path fill-rule="evenodd" clip-rule="evenodd" fill="#545E60" d="M3.5 25.8c-1.2 0-2.5.4-2.8 1.9 0 .2.1.2.2.3l1.2.1c.1 0 .2-.1.2-.2.1-.5.5-.8 1-.8.3 0 .6.1.7.3.2.3.2.6.2.9v.2c-.6.2-1.5.2-2.2.5 1.3.4 2.6.7 4 1v-1.3c0-.8.1-1.6-.6-2.2-.4-.5-1.2-.7-1.9-.7z"/></g><metadata><rdf:RDF xmlns:rdf="http://www.w3.org/1999/02/22-rdf-syntax-ns#" xmlns:rdfs="http://www.w3.org/2000/01/rdf-schema#" xmlns:dc="http://purl.org/dc/elements/1.1/"><rdf:Description about="https://iconscout.com/legal#licenses" dc:title="amazoncom" dc:description="amazoncom" dc:publisher="Iconscout" dc:date="2018-01-30" dc:format="image/svg+xml" dc:language="en"><dc:creator><rdf:Bag><rdf:li>Roundicons.com</rdf:li></rdf:Bag></dc:creator></rdf:Description></rdf:RDF></metadata></svg>