<svg xmlns="http://www.w3.org/2000/svg" width="188" height="188" viewBox="0 0 188 188">
  <defs>
    <style>
      .cls-1 {
        fill: #5a2666;
      }

      .cls-2 {
        fill: #fff;
        fill-rule: evenodd;
      }

      .cls-3 {
        fill: #2767c5;
      }
    </style>
  </defs>
  <circle class="cls-1" cx="94" cy="94" r="94"/>
  <path class="cls-2" d="M133.143,74.435a9.435,9.435,0,0,1-2.244-6.178,10.1,10.1,0,0,1,9.966-9.964,10.066,10.066,0,0,1,1.124,20.073l-15.162,41.123A270.891,270.891,0,0,0,94.4,117.1c-13.616,0-23.582,1.683-32.283,2.385L47.236,78.225c-4.914,0-9.267-4.632-9.267-9.968a10.248,10.248,0,0,1,10.11-10.1,10.126,10.126,0,0,1,9.966,10.1c0,1.545-.421,2.95-2.388,6.038l14.459,16.42,6.038-29.2c-3.93-.14-7.862-4.489-7.862-9.824a10.668,10.668,0,0,1,21.337,0c0,3.228-1.686,7.018-4.915,8.564l9.966,28.91h0.281l9.545-28.91A10.844,10.844,0,0,1,100.3,51.7a10.668,10.668,0,0,1,21.336,0,9.866,9.866,0,0,1-7.3,9.824l4.911,29.2ZM53.693,147c0-6.315-.14-18.949,8.143-19.648,8.7-.7,18.667-2.388,32.283-2.388a268.688,268.688,0,0,1,32.427,2.388c8.986,1.12,8.846,11.787,8.846,19.648h-81.7Z"/>
  <circle id="Ellipse_1_copy" data-name="Ellipse 1 copy" class="cls-3" cx="371" cy="870" r="94"/>
  <path id="Shape_1_copy" data-name="Shape 1 copy" class="cls-2" d="M410.143,850.435a9.434,9.434,0,0,1-2.244-6.178,10.1,10.1,0,0,1,9.966-9.965,10.066,10.066,0,0,1,1.124,20.073l-15.162,41.123A270.891,270.891,0,0,0,371.4,893.1c-13.616,0-23.582,1.683-32.283,2.385l-14.881-41.263c-4.914,0-9.267-4.633-9.267-9.968a10.249,10.249,0,0,1,10.11-10.1,10.126,10.126,0,0,1,9.966,10.1c0,1.545-.421,2.95-2.388,6.038l14.459,16.42,6.038-29.2c-3.93-.141-7.862-4.489-7.862-9.825a10.669,10.669,0,0,1,21.337,0c0,3.229-1.686,7.018-4.914,8.564l9.966,28.91h0.281l9.545-28.91A10.843,10.843,0,0,1,377.3,827.7a10.668,10.668,0,0,1,21.336,0,9.868,9.868,0,0,1-7.3,9.825l4.911,29.2ZM330.693,923c0-6.315-.141-18.949,8.143-19.648,8.7-.7,18.667-2.388,32.283-2.388a268.688,268.688,0,0,1,32.427,2.388c8.986,1.12,8.846,11.787,8.846,19.648h-81.7Z"/>
</svg>
